<?xml version="1.0" encoding="utf-8"?>
<!-- Generator: Adobe Illustrator 24.1.2, SVG Export Plug-In . SVG Version: 6.00 Build 0)  -->
<svg version="1.1" id="Layer_1" xmlns="http://www.w3.org/2000/svg" xmlns:xlink="http://www.w3.org/1999/xlink" x="0px" y="0px"
	 viewBox="0 0 432 555.3" style="enable-background:new 0 0 432 555.3;" xml:space="preserve">
<style type="text/css">
	.st0{clip-path:url(#SVGID_2_);fill:#D89B87;}
	.st1{clip-path:url(#SVGID_2_);fill:#1C3B5E;}
	.st2{clip-path:url(#SVGID_2_);fill:#F7B5A2;}
	.st3{clip-path:url(#SVGID_4_);fill:#1C3B5E;}
	.st4{clip-path:url(#SVGID_6_);fill:#D89B87;}
	.st5{clip-path:url(#SVGID_6_);fill:#895A54;}
	.st6{clip-path:url(#SVGID_6_);fill:#1C3B5E;}
	.st7{clip-path:url(#SVGID_8_);fill:#1C3B5E;}
	.st8{clip-path:url(#SVGID_10_);fill:#F494B8;}
</style>
<g>
	<defs>
		<rect id="SVGID_1_" x="27.4" y="25.1" width="378" height="498.7"/>
	</defs>
	<clipPath id="SVGID_2_">
		<use xlink:href="#SVGID_1_"  style="overflow:visible;"/>
	</clipPath>
	<path class="st0" d="M255.4,425.8c-0.4-10,2.5-218,2.5-218s17-13.7,19.4-34.6c7.7-37.3,5.7-67.9,5.7-72.1c0-4.2-8-14.6-9.2-16.4
		c-1.2-1.8-8.9-6.3-13.7-6.9c-4.8-0.6-6.6,2.4-6.6,2.4s-1.8-11.9-2.7-13.7c-0.9-1.8-8.9-7.2-15.8-7.7c-6.9-0.6-10.7,6.3-10.7,4.2
		c0-2.1-0.9-12.8-1.5-16.1c-0.6-3.3-9.2-6.3-15.8-6.9c-6.6-0.6-10.7,7.4-10.7,7.4s-0.6-11.3-1.5-14.9c-0.9-3.6-12.8-6-17.6-5.7
		c-4.8,0.3-9.5,11.3-9.5,11.3s-24.4,5.4-32.8,7.2c-8.3,1.8-11.9,44.7-11.9,44.7s-1.6,15.5,4.2,31c15.5,36.9,40.5,65,40.5,65
		s6,22.1,4.8,37.5c-1.2,15.5-17.5,196.3-17.5,196.3S206.9,442,255.4,425.8"/>
	<path class="st1" d="M167.6,38.1c2.6-0.7,5.2-1.3,7.9-1.7c1.3-0.2,2.7-0.4,4-0.5c1.4-0.1,2.7-0.1,4.1,0c0.7,0.1,1.4,0.2,2.2,0.6
		c0.4,0.2,0.7,0.5,1,0.9l0.2,0.3l0,0.1l0,0l0,0c0-0.1,0,0.1,0,0.1l0,0.1l0.1,0.5c0.1,0.3,0.1,0.7,0.2,1.1c0.1,0.4,0.1,0.8,0.1,1.1
		c0,0.7,0.1,1.4,0,2.1c0,0.3,0,0.7-0.1,1l-0.2,1l-0.2,1l-0.2,1c-0.3,1.4-0.8,2.7-1.3,4l-0.9,1.9c-0.3,0.6-0.7,1.2-1,1.8
		c-0.3,0.6-0.7,1.2-1.2,1.7l-1.3,1.6c-0.5,0.5-1,1-1.4,1.5c-0.5,0.5-0.9,1-1.5,1.4c-1.1,0.8-2.1,1.8-3.3,2.5c-1.1,0.7-2.3,1.5-3.5,2
		c-1.2,0.6-2.4,1.2-3.7,1.7l-1.9,0.7l-0.9,0.4c-0.3,0.1-0.6,0.2-1,0.3l-3.9,1.1l0.2-0.2l-0.4,1.2c-0.1,0.4-0.3,0.8-0.4,1.2l-0.2,1.2
		c-0.1,0.4-0.1,0.8-0.1,1.2c0,0.4-0.1,0.8-0.1,1.2l0,1.2c0,0.4,0.1,0.8,0.2,1.2c0.1,0.4,0.2,0.8,0.3,1.2c0.1,0.4,0.2,0.8,0.4,1.2
		c0.1,0.4,0.3,0.8,0.4,1.1c0.3,0.7,0.7,1.4,1.1,2.1c0.4,0.7,0.9,1.3,1.4,1.9c0.3,0.3,0.5,0.6,0.8,0.9c0.3,0.3,0.6,0.6,0.8,0.8
		l-0.1-0.1c1.4,0.8,2.8,1.7,4.1,2.7c1.3,1,2.6,2,3.8,3c1.2,1,2.4,2.1,3.6,3.3l1.7,1.7c0.6,0.6,1.1,1.2,1.6,1.8
		c1.1,1.2,2.1,2.5,3.1,3.7c1,1.3,1.9,2.6,2.8,4c0.9,1.4,1.8,2.7,2.5,4.2l1.1,2.2c0.4,0.7,0.7,1.5,1,2.2c0.3,0.7,0.7,1.5,1,2.2
		l0.8,2.3c0.3,0.8,0.6,1.5,0.8,2.3l0.6,2.3l2.6,9.2c0.4,1.5,0.8,3.1,1.2,4.7l1.1,4.7c0.4,1.6,0.7,3.1,0.9,4.7
		c0.2,1.6,0.5,3.2,0.6,4.8l-0.2,0c-0.3-1.6-0.7-3.1-1.1-4.7c-0.2-0.8-0.4-1.6-0.6-2.3l-0.7-2.3l-1.3-4.6c-0.2-0.8-0.4-1.5-0.7-2.3
		l-0.8-2.3l-2.9-9.1l-0.7-2.3c-0.2-0.7-0.5-1.5-0.8-2.2l-0.8-2.2c-0.3-0.7-0.6-1.4-1-2.1c-0.3-0.7-0.6-1.4-1-2.1l-1.1-2.1
		c-0.7-1.4-1.6-2.7-2.4-4.1c-0.8-1.3-1.8-2.6-2.7-3.9c-1-1.2-1.9-2.5-3-3.7c-0.5-0.6-1-1.2-1.5-1.8l-1.6-1.7
		c-0.5-0.6-1.1-1.1-1.7-1.7c-0.6-0.6-1.1-1.1-1.7-1.6c-1.2-1.1-2.4-2.1-3.6-3.1c-1.2-1-2.5-2-3.8-2.8l-0.1,0l0,0
		c-0.3-0.3-0.6-0.6-0.9-1c-0.3-0.3-0.6-0.7-0.8-1c-0.5-0.7-1-1.4-1.4-2.1c-0.4-0.7-0.8-1.5-1.1-2.3c-0.2-0.4-0.3-0.8-0.4-1.2
		c-0.2-0.4-0.2-0.8-0.3-1.2c-0.1-0.4-0.2-0.8-0.2-1.3c0-0.4-0.1-0.8-0.1-1.3l0-1.3c0-0.4,0.1-0.8,0.1-1.3c0.1-0.4,0.1-0.8,0.2-1.3
		l0.3-1.2c0.1-0.4,0.2-0.8,0.4-1.2l0.4-1.2l0.1-0.1l0.2-0.1l3.8-1.1c0.3-0.1,0.6-0.2,1-0.3l0.9-0.4l1.8-0.8c1.2-0.5,2.4-1.2,3.5-1.8
		c1.2-0.6,2.2-1.4,3.3-2.2c1.1-0.7,2-1.7,3-2.5c0.5-0.4,0.9-0.9,1.3-1.4c0.4-0.5,0.9-1,1.3-1.5c0.7-1.1,1.6-2.1,2.2-3.2
		c0.3-0.6,0.7-1.1,1-1.7l0.8-1.8c0.5-1.2,0.9-2.4,1.2-3.7l0.2-0.9l0.2-1l0.2-1l0.1-1c0.1-0.6,0.1-1.3,0.1-1.9c0-0.3,0-0.6-0.1-0.9
		c0-0.3,0-0.6-0.1-0.9l-0.1-0.5l0-0.1c0,0,0,0.1,0,0.1l0,0l0,0l0,0c0,0,0-0.1-0.1-0.1c-0.1-0.1-0.3-0.3-0.5-0.4
		c-0.4-0.3-1-0.4-1.6-0.6c-1.2-0.2-2.6-0.3-3.9-0.3c-1.3,0-2.6,0.1-4,0.2c-2.7,0.2-5.3,0.6-7.9,1L167.6,38.1"/>
	<path class="st1" d="M196.3,47.5c0,0,0,0.9-0.1,2.5c-0.1,1.6-0.3,3.8-0.7,6.5c-0.2,1.3-0.4,2.8-0.8,4.3c-0.3,1.5-0.8,3.1-1.3,4.7
		c-0.5,1.6-0.9,3.3-1.3,5c-0.4,1.7-0.6,3.5-0.8,5.3c-0.2,1.8-0.5,3.6-0.8,5.3c-0.4,1.7-0.7,3.4-1.1,5.1c-0.1,0.8-0.4,1.6-0.7,2.4
		c-0.2,0.8-0.5,1.6-0.8,2.3c-0.6,1.5-1.2,2.7-2,4c-0.7,1.2-1.4,2.2-2,3.1c-0.7,0.9-1.3,1.6-1.8,2.2c-0.6,0.6-1,1-1.3,1.3
		c-0.3,0.3-0.5,0.4-0.5,0.4l-0.1-0.1c0,0,0.1-0.2,0.4-0.5c0.2-0.3,0.6-0.9,1-1.5c0.2-0.3,0.4-0.7,0.6-1.1c0.2-0.4,0.5-0.9,0.7-1.3
		c0.5-1,1.1-2,1.5-3.2c0.6-1.1,1.1-2.6,1.6-3.9c0.4-1.5,0.9-2.9,1.4-4.5c0.4-1.6,0.9-3.3,1.4-5c0.4-1.7,1-3.4,1.5-5.1
		c0.5-1.7,1-3.4,1.3-5.2c0.4-1.7,0.6-3.4,0.8-5.1c0.2-1.7,0.3-3.3,0.6-4.8c0.2-1.5,0.6-2.9,0.8-4.3c0.6-2.6,1.2-4.8,1.6-6.3
		c0.4-1.5,0.8-2.4,0.8-2.4L196.3,47.5"/>
	<path class="st1" d="M224.3,63c0,0,0,0.3-0.1,0.9c-0.1,0.6-0.2,1.5-0.3,2.6c-0.3,2.3-0.8,5.5-1.5,9.3c-0.4,1.9-0.8,4-1.4,6.2
		c-0.6,2.2-1.3,4.4-2.1,6.7c-0.7,2.3-1.7,4.7-2.5,7.1c-0.9,2.4-1.4,5-1.9,7.5c-0.5,2.6-0.9,5.1-1.4,7.6c-0.5,2.5-0.9,5-1.4,7.4
		c-0.2,1.2-0.5,2.4-0.8,3.6c-0.1,0.6-0.4,1.2-0.6,1.8c-0.2,0.6-0.4,0.9-0.6,1.5c-0.7,2.1-1.4,4.2-2.4,6c-1,1.8-2.2,3.3-3.6,4.3
		c-1.4,1-3,1.4-4.2,1.3c-1.2,0-2.1-0.3-2.7-0.5c-0.6-0.2-0.9-0.4-0.9-0.4l0.1-0.2c0,0,0.3,0.1,0.9,0.2c0.6,0.1,1.5,0.2,2.5,0.1
		c0.5-0.1,1.1-0.2,1.7-0.5c0.6-0.2,1.2-0.6,1.7-1.1c1.1-1,2-2.4,2.8-4.1c0.8-1.7,1.3-3.7,2-5.8c0.1-0.3,0.2-0.5,0.3-0.9
		c0.1-0.2,0.1-0.3,0.2-0.4c0.1-0.2,0.1-0.3,0.1-0.4c0.1-0.5,0.3-0.9,0.4-1.5c0.3-1.1,0.5-2.3,0.8-3.5c0.6-2.4,1.1-4.8,1.7-7.3
		c0.3-1.2,0.6-2.5,0.9-3.8c0.4-1.3,0.7-2.5,1.1-3.8c0.8-2.5,1.6-5,2.4-7.4c0.8-2.5,1.6-4.8,2-7.2c0.6-2.4,0.9-4.7,1.4-6.9
		c0.5-2.2,1-4.2,1.4-6.1c0.9-3.8,1.8-6.9,2.4-9.1c0.6-2.2,1-3.4,1-3.4L224.3,63"/>
	<path class="st1" d="M207,130.2c-0.6,2.2-1.2,4.4-1.7,6.7c-0.4,2.2-0.8,4.5-1,6.7s-0.1,4.5,0.4,6.6c0.2,1.1,0.6,2.1,1.1,3
		c0.5,0.9,1.2,1.7,2,2.3c0.8,0.6,1.8,1.1,2.7,1.3l1.7,0.4l0.4,0.1l0.4,0l0.8,0.1l0.8,0.1c0.3,0,0.6,0,0.8,0c0.5-0.1,1.1,0,1.6-0.2
		c0.5-0.1,1.1-0.2,1.6-0.4l1.6-0.6l1.5-0.7c0.5-0.3,1-0.6,1.4-0.9c0.5-0.3,0.9-0.7,1.4-1c0.4-0.4,0.8-0.8,1.2-1.2
		c0.4-0.4,0.8-0.8,1.2-1.2c0.4-0.4,0.7-0.9,1.1-1.3c0.7-0.9,1.3-1.9,1.8-2.9l0,0c1.9-5.6,3.6-11.3,5.5-16.9l2.8-8.4l1.4-4.2l1.3-4.2
		l0.6-2.1c0.2-0.7,0.4-1.4,0.6-2.1l1.5-4.3c1-2.8,2-5.6,3.1-8.3c1.1-2.8,2.2-5.5,3.3-8.2c1.1-2.7,2.3-5.5,3.5-8.2l0.2,0.1
		c-0.8,2.8-1.7,5.7-2.6,8.5l-1.3,4.2l-1.4,4.2l-2.8,8.4l-1.3,4.1l-1.2,4.3c-0.4,1.5-0.9,2.8-1.4,4.3l-1.5,4.2c-1,2.8-2,5.6-3.1,8.3
		c-2.1,5.5-4.3,11-6.4,16.5l0,0v0c-0.6,1-1.2,2-1.9,2.9c-0.7,0.9-1.5,1.8-2.3,2.7c-0.8,0.8-1.7,1.6-2.6,2.4c-0.5,0.3-1,0.7-1.4,1
		l-1.5,0.9l-1.6,0.7c-0.6,0.2-1.1,0.4-1.7,0.5c-0.6,0.2-1.2,0.2-1.8,0.3c-0.3,0-0.6,0.1-0.9,0.1l-0.9,0c-1.3,0-2.4-0.2-3.5-0.4
		c-0.4-0.1-0.6-0.2-0.9-0.3c-0.3-0.1-0.6-0.2-0.9-0.3c-0.3-0.1-0.6-0.3-0.9-0.4l-0.8-0.5c-1-0.8-1.9-1.8-2.5-2.9
		c-0.6-1.1-1-2.3-1.2-3.5c-0.3-1.2-0.3-2.4-0.3-3.6c0-1.2,0.1-2.4,0.2-3.5c0.3-2.3,0.8-4.6,1.5-6.8c0.3-1.1,0.7-2.2,1.1-3.3
		c0.4-1.1,0.8-2.2,1.3-3.2L207,130.2"/>
	<path class="st1" d="M273.2,101.9c0,0,0,1.4-0.2,3.8c-0.1,1.2-0.2,2.7-0.5,4.3c-0.2,1.7-0.6,3.5-1.3,5.6c-0.2,0.5-0.4,1-0.7,1.6
		c-0.3,0.6-0.6,1-0.9,1.5c-0.6,0.9-1.2,1.9-1.8,2.9c-1.2,2-2.6,4-4,6.2c-1.4,2.2-2.8,4.4-4,6.8c-0.6,1.2-1.2,2.4-1.8,3.6
		c-0.3,0.6-0.6,1.2-0.8,1.9c-0.1,0.2-0.1,0.3-0.1,0.4c0,0.1,0,0.1-0.1,0.2c0,0.1,0,0.2-0.1,0.3c-0.1,0.4-0.2,0.7-0.3,1
		c-0.9,2.6-1.9,5.2-3.2,7.6c-1.3,2.4-2.7,4.7-4.3,6.8c-0.8,1-1.7,2-2.8,2.9c-1,0.9-2.2,1.6-3.6,1.9c-0.3,0.1-0.7,0.1-1,0.2
		c-0.4,0-0.7,0-1.1,0c-0.3-0.1-0.7-0.1-1-0.2c-0.3-0.1-0.5-0.2-0.8-0.2c-0.5-0.1-1.1-0.5-1.6-0.7c-0.5-0.2-1-0.6-1.5-0.8
		c-1.8-1.2-3.2-2.7-4.2-4.2c-1-1.5-1.6-2.9-1.8-4.1c-0.3-1.2-0.3-2.2-0.1-2.9c0.1-0.7,0.3-1,0.3-1l0.2,0.1c0,0-0.1,0.3-0.1,0.9
		c0,0.6,0.1,1.5,0.5,2.6c0.4,1.1,1.1,2.3,2.1,3.5c1,1.2,2.4,2.4,4,3.3c0.4,0.2,0.9,0.4,1.3,0.6c0.2,0.1,0.4,0.2,0.7,0.2
		c0.2,0.1,0.5,0.2,0.7,0.2c0.3,0.1,0.5,0.1,0.8,0.2c0.2,0.1,0.4,0.1,0.6,0.1c0.2,0,0.4,0,0.7,0c0.2-0.1,0.4-0.1,0.7-0.1
		c1.9-0.6,3.6-2.2,5.2-4.1c1.6-1.9,3.1-4,4.4-6.3c1.3-2.3,2.7-4.7,3.8-7.1c0.1-0.3,0.3-0.6,0.4-0.9c0-0.1,0.1-0.1,0.1-0.2l0.1-0.2
		c0.1-0.2,0.1-0.4,0.2-0.6c0.3-0.6,0.6-1.2,1-1.8c0.7-1.2,1.3-2.4,1.9-3.6c1.3-2.4,2.5-4.7,3.6-7c1.2-2.3,2.2-4.5,3.4-6.6
		c0.6-1,1.2-2,1.8-3c0.7-1,1.1-1.7,1.4-2.6c0.7-1.8,1.2-3.6,1.6-5.2c0.4-1.6,0.7-3,1-4.2c0.5-2.3,0.8-3.7,0.8-3.7L273.2,101.9"/>
	<path class="st1" d="M256.7,425.8c-0.7-20.3,0.2-40.7,0.5-61c0.4-34.2,0.8-68.5,1.3-102.7c0.2-13,0.3-25.9,0.5-38.8
		c0.1-3.8,0.1-7.6,0.2-11.3c0-1,0-2,0-3c0-1.5,0.3-0.8-0.3-0.2c5.1-4.2,9.4-9.8,12.8-15.4c7.1-11.6,8.4-26,10.2-39.2
		c1.7-12.5,2.5-25.1,2.6-37.6c0.1-5.5,0.9-12.6-0.8-18c-1.9-5.8-6.8-13.4-12-17c-4.7-3.2-15-8.3-19.3-1.8c0.8,0.1,1.6,0.2,2.4,0.3
		c-1-6.6-0.8-13.4-6.6-17.4c-4.4-3.1-10.4-5.6-15.9-4.9c-1.8,0.2-3.5,1.1-5,2.1c-0.6,0.4-1.2,0.9-1.8,1.4c-2,1.6,0.2,1.6,0.1,0.7
		c-0.2-4.6-0.6-9.2-1.3-13.7c-0.5-3.8-3.3-5.6-6.8-6.9c-8.9-3.3-17.4-3.6-22.3,5.6c0.8,0.2,1.6,0.4,2.4,0.7
		c-0.3-5.4,0.8-14.8-4.2-18.2c-5.8-4-16.6-5.9-21.7-0.2c-2.2,2.4-3.8,5.5-5.1,8.4c0.4-0.9,0.5-0.4-1-0.1c-1.8,0.4-3.7,0.8-5.5,1.2
		c-8.6,1.9-17.5,3.2-25.9,5.7c-4.8,1.4-6.4,9.9-7.5,13.8c-2.1,7.8-3.2,15.8-4.1,23.7c-0.5,3.9-0.9,7.9-1.1,11.9
		c-0.4,13.6,3.3,25.9,9,38.1c9.1,19.1,21,37.1,34.6,53.3c0.4,0.5,0.9,1.1,1.4,1.6c0.6,0.7-0.2-0.8,0.1,0.3c1,3.9,1.8,7.8,2.6,11.8
		c1.7,8.9,2.6,18,1.8,27.1c-2.2,26-4.6,52.1-6.9,78.1c-3.5,38.7-6.9,77.3-10.4,116c0,0.4,0.3,1,0.6,1.1
		c31.1,13.2,69.4,16.6,101.5,6.1c1.6-0.5,0.9-3-0.7-2.5c-26.5,8.6-55,7-81.6,0c-6-1.6-11.9-3.4-17.6-5.7c-1.1-0.4,0.3,1.9,0.4,0.4
		c0.1-1,0.2-2,0.3-3c2.4-26.3,4.7-52.7,7.1-79c2.9-32.1,5.8-64.1,8.6-96.2c1-10.9,2.2-21.6,1-32.5c-0.6-5.2-1.5-10.3-2.6-15.4
		c-0.5-2.3-0.7-5.6-1.9-7.7c-2.4-4-6.3-7.6-9.1-11.3c-7.2-9.4-13.7-19.4-19.6-29.7c-8-14-14.9-28.3-15.9-44.6
		c-0.8-12.6,1.6-25.9,4.3-38.1c0.8-3.7,1.8-7.4,3.3-10.8c1.5-3.5,3.1-4.1,6.6-4.9c8.9-1.9,17.7-3.9,26.5-5.8
		c0.9-0.2,3.3-0.3,3.8-1.4c1.6-3.6,4-8.9,7.9-10.5c3.9-1.6,11.9,1.3,15.3,3.2c3.3,1.8,2.6,10.9,2.8,14.3c0,0.5,0.1,1.1,0.1,1.6
		c0.1,1.2,1.8,1.9,2.4,0.7c1.6-3,4.1-5.6,7.5-6.7c3.6-1.2,15.2,1.6,16.7,5.8c1.2,3.4,0.9,8.1,1.2,11.7c0.1,1.3-0.4,4.8,1.1,5.5
		c1.6,0.7,3.6-1.7,4.7-2.5c5.4-3.9,12.1-0.8,17.1,2.1c3.8,2.2,4.3,4.1,5.1,8.2c0.5,2.8,1,5.5,1.4,8.3c0.2,1.2,1.8,1.1,2.4,0.3
		c3.3-4.9,12.4,0.6,15.8,2.7c3.6,2.3,6.1,7.1,8.3,10.7c3.9,6.2,3.2,12.7,3.2,19.8c0,12.6-0.8,25.2-2.4,37.7
		c-1.8,14.5-3.5,29.8-11.5,42.3c-2.3,3.7-5.2,7-8.2,10.1c-0.8,0.8-3.2,2.2-3.2,3.5c0,1.4,0,2.7-0.1,4.1c-0.1,9.5-0.3,19-0.4,28.6
		c-0.8,59.6-1.9,119.3-2.1,178.9c0,2.1,0,4.3,0,6.4C254.1,427.4,256.7,427.4,256.7,425.8"/>
	<path class="st2" d="M152.6,40.3c0,0,2,4,11.7,3.6c9.7-0.4,22-2.4,22-6.9C185.4,29.7,152.6,40.3,152.6,40.3"/>
	<path class="st2" d="M197.7,108.4c-7.8-1.2-8.1,8.8-8.1,8.8s6,15.9,6.2,19.3c6.6,3.6,7.8-6.6,7.8-6.6S210.6,110.3,197.7,108.4"/>
	<path class="st2" d="M210.2,163.5c0,0-6.6-1.1-5.5-10.6c1-9.5,8.3-19.1,15.2-14.6c6.9,4.5,3.6,10.5,3,12
		C222.3,151.9,217,165.1,210.2,163.5"/>
	<path class="st2" d="M235.5,163.6c0,0-4.6-2.3-3.3-8.9c1.3-6.6,4.2-13.3,10.6-11.4c6.4,1.9,3.6,9.5,3.6,9.5
		S243.1,164.8,235.5,163.6"/>
	<path class="st2" d="M57.9,516.1c0.4-10-2.5-218-2.5-218s-17-13.7-19.4-34.6c-7.7-37.2-5.7-67.9-5.7-72.1c0-4.2,8-14.6,9.2-16.4
		c1.2-1.8,8.9-6.3,13.7-6.8c4.8-0.6,6.6,2.4,6.6,2.4s1.8-11.9,2.7-13.7c0.9-1.8,8.9-7.1,15.8-7.7c6.9-0.6,10.7,6.3,10.7,4.2
		c0-2.1,0.9-12.8,1.5-16.1c0.6-3.3,9.2-6.3,15.8-6.9c6.6-0.6,10.7,7.4,10.7,7.4s0.6-11.3,1.5-14.9c0.9-3.6,12.8-6,17.6-5.7
		c4.8,0.3,9.5,11.3,9.5,11.3s24.4,5.4,32.8,7.2c8.3,1.8,11.9,44.7,11.9,44.7s1.6,15.5-4.2,31c-15.5,36.9-40.5,64.9-40.5,64.9
		s-6,22.1-4.8,37.5c1.2,15.5,17.5,196.3,17.5,196.3S106.4,532.4,57.9,516.1"/>
	<path class="st1" d="M144.6,128.7c-2.7-0.4-5.3-0.8-8-1c-1.3-0.1-2.6-0.2-4-0.2c-1.3,0-2.6,0-3.9,0.3c-0.6,0.1-1.2,0.3-1.6,0.5
		c-0.2,0.1-0.4,0.3-0.5,0.4c0,0,0,0.1,0,0.1l0,0l0,0l0,0c0,0.1,0-0.1,0-0.1l0,0.1l-0.1,0.5c-0.1,0.3-0.1,0.6-0.1,0.9
		c0,0.3-0.1,0.6-0.1,0.9c0,0.6,0,1.3,0.1,1.9l0.1,1l0.2,1l0.2,0.9l0.2,0.9c0.3,1.3,0.8,2.5,1.2,3.7l0.8,1.8c0.3,0.6,0.6,1.1,1,1.7
		c0.6,1.1,1.4,2.1,2.2,3.2c0.4,0.5,0.9,1,1.3,1.5c0.4,0.5,0.8,1,1.4,1.4c1,0.8,1.9,1.8,3,2.5c1.1,0.8,2.1,1.6,3.3,2.2
		c1.2,0.6,2.3,1.4,3.5,1.8l1.8,0.8l0.9,0.4c0.3,0.1,0.6,0.2,0.9,0.3l3.8,1.1l0.2,0l0,0.1l0.4,1.2c0.1,0.4,0.3,0.8,0.4,1.2l0.3,1.2
		c0.1,0.4,0.1,0.8,0.2,1.3c0,0.4,0.1,0.8,0.1,1.3l0,1.3c0,0.4-0.1,0.8-0.2,1.3c0,0.4-0.1,0.8-0.2,1.2c-0.1,0.4-0.2,0.8-0.3,1.2
		c-0.1,0.4-0.2,0.8-0.4,1.2c-0.3,0.8-0.7,1.6-1.1,2.3c-0.4,0.7-0.9,1.5-1.4,2.1c-0.3,0.3-0.5,0.7-0.8,1c-0.3,0.3-0.6,0.6-0.9,1l0,0
		l-0.1,0.1c-1.3,0.8-2.6,1.8-3.8,2.8c-1.2,1-2.5,2-3.6,3.1c-0.6,0.5-1.2,1.1-1.7,1.6c-0.6,0.6-1.1,1.1-1.7,1.7l-1.6,1.7
		c-0.5,0.6-1,1.2-1.5,1.8c-1.1,1.2-2,2.5-2.9,3.7c-0.9,1.3-1.8,2.6-2.7,3.9c-0.8,1.3-1.7,2.7-2.4,4.1l-1.1,2.1
		c-0.4,0.7-0.7,1.4-1,2.1c-0.3,0.7-0.7,1.4-1,2.2l-0.8,2.2c-0.3,0.7-0.6,1.5-0.8,2.2l-0.7,2.3l-2.9,9.1l-0.8,2.3
		c-0.2,0.8-0.4,1.5-0.7,2.3l-1.3,4.6l-0.7,2.3c-0.2,0.8-0.4,1.5-0.6,2.3c-0.4,1.5-0.8,3.1-1.1,4.7l-0.2,0c0.1-1.6,0.4-3.2,0.6-4.8
		c0.2-1.6,0.5-3.2,0.9-4.7l1.1-4.7c0.3-1.6,0.7-3.1,1.2-4.7l2.6-9.2l0.7-2.3c0.2-0.8,0.5-1.6,0.8-2.3l0.8-2.3c0.3-0.8,0.6-1.5,1-2.2
		c0.3-0.7,0.6-1.5,1-2.2l1.2-2.2c0.7-1.5,1.6-2.8,2.5-4.2c0.9-1.4,1.9-2.7,2.8-4c1-1.3,2-2.6,3.1-3.7c0.6-0.6,1.1-1.2,1.6-1.8
		l1.7-1.7c1.2-1.1,2.3-2.2,3.6-3.3c1.2-1.1,2.5-2.1,3.8-3c1.3-1,2.6-1.9,4.1-2.7l-0.1,0.1c0.3-0.2,0.6-0.5,0.8-0.8
		c0.3-0.3,0.5-0.6,0.8-0.9c0.5-0.6,1-1.3,1.4-1.9c0.4-0.7,0.8-1.4,1.1-2.1c0.2-0.4,0.3-0.7,0.4-1.1c0.2-0.4,0.3-0.8,0.4-1.2
		s0.2-0.8,0.3-1.2c0.1-0.4,0.1-0.8,0.2-1.2l0-1.2c0-0.4,0-0.8-0.1-1.2c0-0.4,0-0.8-0.1-1.2l-0.2-1.2c-0.1-0.4-0.2-0.8-0.3-1.2
		l-0.4-1.2l0.2,0.2l-3.9-1.1c-0.3-0.1-0.6-0.2-1-0.3l-0.9-0.4l-1.9-0.7c-1.3-0.4-2.5-1.1-3.7-1.7c-1.2-0.5-2.4-1.3-3.5-2
		c-1.2-0.7-2.2-1.6-3.3-2.5c-0.6-0.4-1-0.9-1.5-1.4c-0.5-0.5-1-1-1.4-1.5l-1.3-1.6c-0.4-0.5-0.8-1.1-1.2-1.7c-0.3-0.6-0.7-1.2-1-1.8
		l-0.9-1.9c-0.5-1.3-1-2.6-1.3-4l-0.2-1l-0.2-1l-0.2-1c0-0.4,0-0.7-0.1-1.1c-0.1-0.7,0-1.4,0-2.1c0-0.3,0-0.7,0.1-1.1
		c0.1-0.4,0.1-0.8,0.2-1.1l0.1-0.5l0-0.1c0,0,0-0.1,0-0.1l0,0l0,0l0-0.1l0.2-0.3c0.3-0.4,0.7-0.7,1-0.9c0.7-0.4,1.5-0.5,2.2-0.6
		c1.4-0.2,2.8-0.1,4.1,0c1.4,0.1,2.7,0.3,4,0.5c2.7,0.5,5.3,1,7.9,1.7L144.6,128.7"/>
	<path class="st1" d="M116.1,137.8c0,0,0.3,0.9,0.8,2.4c0.4,1.5,1,3.7,1.6,6.3c0.3,1.3,0.6,2.7,0.8,4.3c0.3,1.5,0.4,3.2,0.6,4.8
		c0.1,1.7,0.4,3.4,0.8,5.1c0.3,1.7,0.8,3.5,1.3,5.2c0.5,1.7,1,3.4,1.5,5.1c0.5,1.7,0.9,3.3,1.4,5c0.4,1.6,1,3.1,1.4,4.5
		c0.5,1.3,1.1,2.8,1.6,3.9c0.5,1.2,1.1,2.3,1.5,3.2c0.3,0.5,0.5,0.9,0.7,1.3c0.2,0.4,0.4,0.8,0.6,1.1c0.4,0.7,0.7,1.2,1,1.5
		c0.2,0.4,0.4,0.5,0.4,0.5l-0.1,0.1c0,0-0.2-0.1-0.5-0.4c-0.3-0.3-0.8-0.7-1.3-1.3c-0.6-0.6-1.2-1.3-1.8-2.2
		c-0.7-0.9-1.4-1.9-2.1-3.2c-0.7-1.2-1.3-2.5-2-4c-0.3-0.7-0.5-1.5-0.8-2.3c-0.2-0.8-0.5-1.6-0.7-2.4c-0.4-1.7-0.7-3.4-1.1-5.1
		c-0.3-1.7-0.5-3.5-0.8-5.3c-0.3-1.8-0.5-3.6-0.8-5.3c-0.3-1.7-0.8-3.4-1.3-5c-0.5-1.6-0.9-3.2-1.3-4.7c-0.3-1.5-0.6-2.9-0.8-4.3
		c-0.4-2.7-0.6-4.9-0.7-6.5c-0.1-1.6-0.1-2.5-0.1-2.5L116.1,137.8"/>
	<path class="st1" d="M88.1,153.3c0,0,0.4,1.2,1,3.4c0.6,2.2,1.5,5.3,2.4,9.1c0.5,1.9,1,3.9,1.4,6.1c0.5,2.2,0.9,4.5,1.4,6.9
		c0.4,2.4,1.2,4.8,2,7.2c0.8,2.4,1.6,4.9,2.4,7.4c0.4,1.3,0.7,2.5,1.1,3.8c0.3,1.3,0.7,2.5,1,3.8c0.6,2.5,1.1,5,1.7,7.3
		c0.3,1.2,0.5,2.3,0.8,3.5c0.1,0.6,0.3,1,0.4,1.5c0,0.1,0,0.2,0.1,0.4c0.1,0.1,0.1,0.3,0.2,0.4c0.1,0.3,0.2,0.6,0.3,0.9
		c0.7,2.2,1.2,4.1,2,5.8c0.8,1.7,1.7,3.1,2.8,4.1c0.5,0.5,1.1,0.8,1.7,1.1c0.6,0.2,1.1,0.4,1.7,0.5c1.1,0.2,2,0,2.5-0.1
		c0.6-0.1,0.9-0.2,0.9-0.2l0.1,0.2c0,0-0.3,0.1-0.9,0.4c-0.6,0.2-1.5,0.5-2.7,0.5c-1.2,0-2.7-0.3-4.2-1.3c-1.4-1-2.6-2.5-3.6-4.3
		c-1-1.8-1.7-3.9-2.4-6c-0.2-0.6-0.4-0.9-0.6-1.5c-0.2-0.6-0.5-1.3-0.6-1.9c-0.3-1.2-0.6-2.4-0.8-3.5c-0.5-2.4-0.9-4.9-1.4-7.4
		c-0.4-2.5-0.9-5.1-1.4-7.6c-0.5-2.5-1-5.1-1.9-7.5c-0.8-2.4-1.8-4.8-2.5-7.1c-0.8-2.3-1.5-4.6-2.1-6.8c-0.6-2.2-1-4.2-1.4-6.2
		c-0.7-3.8-1.2-7.1-1.5-9.3c-0.1-1.1-0.2-2-0.3-2.6c0-0.6-0.1-0.9-0.1-0.9L88.1,153.3"/>
	<path class="st1" d="M105.4,220.5c0.5,1.1,0.9,2.1,1.3,3.2c0.4,1.1,0.8,2.2,1.1,3.3c0.7,2.2,1.2,4.5,1.5,6.9
		c0.1,1.2,0.2,2.3,0.2,3.5c0,1.2-0.1,2.4-0.3,3.6c-0.3,1.2-0.6,2.4-1.2,3.5c-0.6,1.1-1.5,2.1-2.5,2.9l-0.8,0.5
		c-0.3,0.2-0.6,0.3-0.9,0.4c-0.3,0.2-0.6,0.2-0.9,0.3c-0.3,0.1-0.5,0.2-1,0.3c-1.1,0.2-2.2,0.4-3.5,0.4l-0.9,0
		c-0.3,0-0.6-0.1-0.9-0.1c-0.6-0.1-1.2-0.1-1.8-0.3c-0.6-0.2-1.2-0.3-1.7-0.5l-1.6-0.7l-1.5-0.9c-0.5-0.3-1-0.7-1.4-1
		c-0.9-0.7-1.8-1.5-2.6-2.4c-0.8-0.8-1.6-1.7-2.3-2.7c-0.7-0.9-1.3-1.9-1.9-2.9l0,0l0,0c-2.1-5.5-4.4-11-6.4-16.6
		c-1.1-2.8-2.1-5.5-3.1-8.3l-1.5-4.2c-0.5-1.4-1-2.8-1.4-4.3l-1.2-4.3l-1.3-4.1l-2.8-8.4l-1.4-4.2l-1.3-4.2
		c-0.9-2.8-1.8-5.6-2.6-8.5l0.2-0.1c1.2,2.7,2.4,5.4,3.5,8.2c1.1,2.7,2.2,5.5,3.3,8.2c1.1,2.8,2.1,5.5,3.1,8.3l1.5,4.3
		c0.2,0.7,0.4,1.4,0.6,2.1l0.6,2.1l1.3,4.2l1.4,4.2l2.8,8.4c1.9,5.6,3.6,11.3,5.5,16.9l0,0c0.5,1,1.1,2,1.8,2.9
		c0.3,0.5,0.7,0.9,1.1,1.3c0.4,0.4,0.8,0.8,1.2,1.2c0.4,0.4,0.8,0.8,1.2,1.2c0.5,0.4,0.9,0.7,1.3,1c0.5,0.3,0.9,0.6,1.4,0.9l1.5,0.7
		l1.6,0.6c0.5,0.2,1.1,0.2,1.6,0.4c0.5,0.2,1.1,0.1,1.6,0.2c0.3,0,0.5,0.1,0.8,0.1l0.8-0.1l0.8-0.1l0.4,0l0.4-0.1l1.7-0.4
		c0.9-0.3,1.9-0.7,2.7-1.3c0.8-0.6,1.5-1.4,2-2.3c0.5-0.9,0.8-1.9,1.1-3c0.5-2.1,0.5-4.4,0.4-6.6c-0.2-2.3-0.5-4.5-1-6.7
		c-0.4-2.2-1-4.5-1.7-6.7L105.4,220.5"/>
	<path class="st1" d="M39.3,192.2c0,0,0.3,1.3,0.8,3.7c0.3,1.2,0.6,2.6,1,4.2c0.4,1.6,0.9,3.4,1.6,5.2c0.4,0.9,0.8,1.7,1.4,2.6
		c0.6,0.9,1.2,1.9,1.8,3c1.2,2,2.2,4.3,3.4,6.6c1.1,2.3,2.3,4.7,3.6,7c0.6,1.2,1.3,2.4,2,3.6c0.3,0.6,0.7,1.2,1,1.9
		c0.1,0.1,0.2,0.3,0.2,0.5l0.1,0.2c0,0.1,0,0.2,0.1,0.2c0.1,0.2,0.2,0.6,0.4,0.9c1.1,2.4,2.4,4.8,3.8,7.1c1.3,2.3,2.8,4.5,4.4,6.3
		c1.6,1.8,3.4,3.5,5.2,4.1c0.2,0.1,0.5,0.1,0.7,0.1c0.2,0,0.4,0,0.7,0c0.2,0,0.4,0,0.6-0.1c0.3-0.1,0.5-0.1,0.8-0.2
		c0.6-0.1,0.9-0.3,1.4-0.5c0.4-0.2,0.9-0.4,1.3-0.6c1.7-0.9,3-2.2,4-3.4c1-1.2,1.7-2.5,2.1-3.5c0.4-1.1,0.6-2,0.5-2.6
		c0-0.6-0.1-0.9-0.1-0.9l0.2-0.1c0,0,0.2,0.3,0.3,1c0.1,0.7,0.1,1.7-0.1,2.9c-0.3,1.2-0.9,2.6-1.8,4.1c-1,1.5-2.3,2.9-4.2,4.2
		c-0.5,0.3-0.9,0.6-1.5,0.8c-0.5,0.2-1.1,0.5-1.6,0.7c-0.3,0.1-0.5,0.2-0.8,0.3c-0.3,0.1-0.7,0.1-1,0.2c-0.3,0-0.7,0-1.1,0
		c-0.3-0.1-0.7-0.1-1-0.2c-1.4-0.4-2.5-1.1-3.6-1.9c-1-0.9-1.9-1.8-2.8-2.9c-1.7-2.1-3.1-4.4-4.3-6.8c-1.3-2.4-2.3-5-3.2-7.6
		c-0.1-0.3-0.2-0.6-0.3-1c0-0.1,0-0.2-0.1-0.3c0-0.1,0-0.1-0.1-0.2c0-0.1-0.1-0.3-0.1-0.4c-0.2-0.6-0.5-1.2-0.8-1.9
		c-0.6-1.2-1.2-2.4-1.8-3.6c-1.3-2.4-2.6-4.6-4-6.8c-1.4-2.2-2.8-4.2-4-6.2c-0.6-1-1.2-2-1.8-2.9c-0.3-0.5-0.6-0.9-0.9-1.5
		c-0.3-0.5-0.5-1.1-0.7-1.5c-0.7-2-1-3.9-1.3-5.6c-0.3-1.7-0.4-3.1-0.5-4.3c-0.2-2.4-0.1-3.8-0.1-3.8L39.3,192.2"/>
</g>
<g>
	<defs>
		<rect id="SVGID_3_" x="27.4" y="115" width="164.4" height="408.6"/>
	</defs>
	<clipPath id="SVGID_4_">
		<use xlink:href="#SVGID_3_"  style="overflow:visible;"/>
	</clipPath>
	<path class="st3" d="M58.1,516.1c0.7-20.3-0.2-40.7-0.5-61c-0.4-34.3-0.8-68.5-1.3-102.7c-0.2-18.1-0.5-36.2-0.7-54.3
		c0-1.2-2-2.3-2.7-3c-3.3-3.2-6.2-6.8-8.7-10.6c-8.2-12.3-9.6-28-11.5-42.3c-1.6-12.5-2.3-25.1-2.4-37.7c0-7.2-0.5-13.5,3.2-19.8
		c1.9-3.3,4.3-7.7,7.4-10c3.4-2.6,13.4-8.4,16.7-3.3c0.6,0.8,2.2,0.9,2.4-0.3c0.8-5.4,0.6-12.5,5.4-15.8c4.9-3.4,11.7-6.3,17.3-3.4
		c1.3,0.7,3.8,3.9,5.6,3.1c1.4-0.6,1-3.3,1-4.4c0.3-4,0.6-8.1,1.2-12.1c0.7-4.9,10.8-6.2,14.6-6.6c4.2-0.5,7.8,3.4,9.6,6.8
		c0.6,1.2,2.4,0.6,2.4-0.7c0.2-3.4,0.4-6.8,0.8-10.2c0.3-2.9,0.3-4.7,3-6.2c2.9-1.6,6.7-2.2,10-2.6c5.9-0.8,8.4,2.8,11,7.6
		c0.9,1.6,1.1,3.2,3,3.6c8.2,1.8,16.5,3.6,24.7,5.4c2.7,0.6,6.9,0.6,8.9,2.8c2.4,2.6,3.3,6.7,4.2,10c3.3,11.8,5.2,24.6,5.4,36.9
		c0.3,15.9-5.4,29.8-12.7,43.6c-5.9,11.2-12.7,21.8-20.1,32c-3.6,5-7.4,9.9-11.5,14.6c-0.8,0.9-0.9,2.3-1.2,3.5
		c-1.2,5-2.2,10.1-3,15.2c-1.8,11.8-0.9,23,0.1,34.8c2.8,31.5,5.6,63,8.4,94.5c2.5,27.3,4.9,54.6,7.4,81.9c0.1,1.7,0.3,3.3,0.4,5
		c-0.1-1.1,1.6-1.5-0.1-0.8c-0.9,0.3-1.7,0.7-2.6,1c-3.4,1.2-6.8,2.3-10.2,3.3c-25.4,7.5-52.9,9.8-78.8,3.3
		c-2.4-0.6-4.8-1.4-7.1-2.1c-1.6-0.5-2.3,2-0.7,2.5c32.2,10.5,70.4,7.1,101.5-6.1c0.4-0.2,0.7-0.7,0.6-1.1
		c-4.9-54-9.7-108-14.5-162.1c-0.9-10.4-1.8-20.7-2.7-31c-0.7-8-0.2-15.9,1-23.9c0.7-4.6,1.7-9.2,2.7-13.8c0.2-0.9,0.4-1.8,0.7-2.6
		c-0.3,1,0,0.1,0.5-0.4c12.9-15,23.9-31.9,33-49.5c6.5-12.6,11-25.1,11.4-39.5c0.1-4.3-0.3-8.6-0.8-12.9c-1.2-11.2-2.4-23.5-7-33.9
		c-1.7-3.9-3.5-5.7-7.6-6.6c-7-1.5-14.1-3.1-21.1-4.6c-2.5-0.6-5.1-1.1-7.6-1.7c-0.6-0.1-1.1-0.2-1.7-0.4c1.2,0.3,0.4-0.2-0.3-1.5
		c-2.4-4.8-5.6-10-11.5-9.9c-5.3,0.1-13.2,1.3-16.6,5.7c-1.4,1.8-1.2,6.1-1.4,8.3c-0.2,2.6-0.4,5.3-0.6,7.9c0.8-0.2,1.6-0.4,2.4-0.7
		c-4.7-8.7-12.3-8.9-21-6.1c-3.2,1-7.4,2.8-8,6.5c-0.7,4.5-1,9.2-1.3,13.8c-0.2,2.3-0.2,0.4,1.3,1.1c-0.7-0.3-1.4-1.1-2-1.6
		c-1.8-1.4-3.6-2.2-5.8-2.8c-5-1.3-10.9,1.7-15.1,4.1c-6.8,3.9-6.6,10.9-7.7,18.1c0.8-0.1,1.6-0.2,2.4-0.3
		c-4.6-6.9-15.4-0.9-20.3,2.4c-2.4,1.7-3.9,4.4-5.6,6.8c-2.2,3.2-5.6,7.5-6,11.6c-1.8,19.5,0.2,40,3.1,59.3c2,13.1,4,25.6,11.5,36.8
		c2.2,3.2,4.7,6.3,7.4,9c0.8,0.9,1.7,1.7,2.6,2.5c1,0.9,0.4,0.6,0.4-0.2c0.1,5.7,0.2,11.5,0.2,17.2c0.8,61,1.7,122,2.2,183
		c0,5.9,0.2,11.8,0,17.7C55.5,517.8,58.1,517.8,58.1,516.1"/>
</g>
<g>
	<defs>
		<rect id="SVGID_5_" x="27.4" y="25.1" width="378" height="498.7"/>
	</defs>
	<clipPath id="SVGID_6_">
		<use xlink:href="#SVGID_5_"  style="overflow:visible;"/>
	</clipPath>
	<path class="st4" d="M159.6,130.7c0,0-2,4-11.7,3.6c-9.7-0.4-22.1-2.4-22.1-6.8C126.8,120.1,159.6,130.7,159.6,130.7"/>
	<path class="st4" d="M114.5,198.7c7.8-1.2,8.1,8.8,8.1,8.8s-6,15.9-6.2,19.3c-6.6,3.6-7.8-6.6-7.8-6.6S101.6,200.7,114.5,198.7"/>
	<path class="st4" d="M102,253.9c0,0,6.6-1,5.5-10.6c-1-9.5-8.3-19.1-15.2-14.6c-6.9,4.5-3.6,10.5-3,12
		C90,242.2,95.2,255.5,102,253.9"/>
	<path class="st4" d="M76.7,254c0,0,4.6-2.3,3.3-8.9c-1.3-6.6-4.2-13.3-10.6-11.4c-6.4,1.9-3.6,9.5-3.6,9.5S69.1,255.2,76.7,254"/>
	<path class="st5" d="M376.3,503.3c-0.4-10,2.5-170.3,2.5-170.3s17-13.7,19.4-34.6c7.8-37.3,5.7-67.9,5.7-72.1
		c0-4.2-8-14.6-9.2-16.4c-1.2-1.8-8.9-6.3-13.7-6.9c-4.8-0.6-6.5,2.4-6.5,2.4s-1.8-11.9-2.7-13.7c-0.9-1.8-8.9-7.1-15.8-7.7
		c-6.9-0.6-10.7,6.3-10.7,4.2c0-2.1-0.9-12.8-1.5-16.1c-0.6-3.3-9.2-6.3-15.8-6.8c-6.6-0.6-10.7,7.4-10.7,7.4s-0.6-11.3-1.5-14.9
		c-0.9-3.6-12.8-6-17.6-5.7c-4.8,0.3-9.5,11.3-9.5,11.3s-24.4,5.4-32.8,7.1c-8.3,1.8-11.9,44.7-11.9,44.7s-1.6,15.5,4.2,31
		c15.5,37,40.5,65,40.5,65s6,22.1,4.8,37.6c-1.2,15.5-17.5,148.6-17.5,148.6S327.8,519.6,376.3,503.3"/>
	<path class="st6" d="M288.5,163.3c2.6-0.7,5.2-1.3,7.9-1.7c1.3-0.2,2.7-0.4,4-0.5c1.4-0.1,2.7-0.1,4.1,0c0.7,0.1,1.4,0.2,2.2,0.6
		c0.4,0.2,0.7,0.5,1,0.9l0.2,0.3l0.1,0.1l0,0l0,0c0-0.1,0,0.1,0,0.1l0,0.1l0.1,0.5c0.1,0.3,0.1,0.7,0.2,1.1c0.1,0.4,0.1,0.8,0.1,1.1
		c0,0.7,0.1,1.4,0,2.1c0,0.4,0,0.7-0.1,1.1l-0.2,1l-0.2,1l-0.2,1c-0.3,1.4-0.8,2.7-1.3,4l-0.9,1.9c-0.3,0.6-0.7,1.2-1,1.8
		c-0.3,0.6-0.7,1.2-1.2,1.7l-1.3,1.6c-0.5,0.5-1,1-1.4,1.5c-0.5,0.5-0.9,1-1.5,1.4c-1.1,0.8-2.1,1.8-3.3,2.5c-1.2,0.7-2.3,1.5-3.5,2
		c-1.2,0.6-2.4,1.2-3.7,1.7l-1.9,0.7l-0.9,0.4c-0.3,0.1-0.6,0.2-1,0.3l-3.9,1.1l0.2-0.2l-0.4,1.2c-0.1,0.4-0.3,0.8-0.4,1.2l-0.2,1.2
		c-0.1,0.4-0.1,0.8-0.1,1.2c0,0.4-0.1,0.8-0.1,1.2l0,1.2c0,0.4,0.1,0.8,0.2,1.2c0,0.4,0.2,0.8,0.3,1.2c0.1,0.4,0.2,0.8,0.4,1.2
		c0.2,0.4,0.3,0.8,0.4,1.1c0.3,0.7,0.7,1.4,1.1,2.1c0.4,0.7,0.9,1.3,1.4,1.9c0.3,0.3,0.5,0.6,0.8,0.9c0.3,0.3,0.6,0.6,0.9,0.8
		l-0.1-0.1c1.4,0.8,2.8,1.7,4.1,2.7c1.3,1,2.6,2,3.8,3c1.2,1,2.4,2.2,3.6,3.3l1.7,1.7c0.6,0.6,1.1,1.2,1.6,1.8
		c1.1,1.2,2.1,2.5,3.1,3.7c0.9,1.3,1.9,2.6,2.8,4c0.9,1.4,1.8,2.7,2.5,4.2l1.1,2.2c0.4,0.7,0.7,1.5,1,2.2c0.3,0.7,0.7,1.5,1,2.2
		l0.8,2.3c0.3,0.8,0.6,1.5,0.8,2.3l0.7,2.3l2.6,9.2c0.4,1.5,0.8,3.1,1.2,4.7l1.1,4.7c0.4,1.6,0.7,3.1,0.9,4.7
		c0.2,1.6,0.5,3.2,0.6,4.8l-0.2,0c-0.3-1.6-0.7-3.1-1.1-4.7c-0.2-0.8-0.4-1.6-0.6-2.3l-0.7-2.3l-1.3-4.6c-0.2-0.8-0.4-1.5-0.7-2.3
		l-0.8-2.3l-3.7-11.4c-0.2-0.7-0.5-1.5-0.8-2.2l-0.8-2.2c-0.3-0.7-0.7-1.4-1-2.2c-0.3-0.7-0.6-1.4-1-2.1l-1.1-2.1
		c-0.7-1.4-1.6-2.7-2.4-4.1c-0.8-1.3-1.8-2.6-2.7-3.9c-1-1.2-1.9-2.5-2.9-3.7c-0.5-0.6-1-1.2-1.6-1.8l-1.6-1.7
		c-0.5-0.6-1.1-1.1-1.7-1.7c-0.6-0.6-1.1-1.1-1.7-1.6c-1.2-1.1-2.4-2.1-3.6-3.1c-1.2-1-2.5-2-3.8-2.8l-0.1-0.1l0,0
		c-0.3-0.3-0.6-0.6-0.9-1c-0.3-0.3-0.6-0.7-0.8-1c-0.5-0.7-1-1.4-1.4-2.1c-0.4-0.7-0.8-1.5-1.1-2.3c-0.2-0.4-0.3-0.8-0.4-1.2
		c-0.1-0.4-0.2-0.8-0.3-1.2c-0.1-0.4-0.2-0.8-0.2-1.3c-0.1-0.4-0.1-0.8-0.2-1.3l0-1.3c0-0.4,0.1-0.8,0.1-1.3
		c0.1-0.4,0.1-0.8,0.2-1.3l0.3-1.2c0.1-0.4,0.2-0.8,0.4-1.2l0.4-1.2l0-0.1l0.2,0l3.8-1.2c0.3-0.1,0.6-0.2,0.9-0.3l0.9-0.4l1.8-0.8
		c1.2-0.5,2.4-1.2,3.5-1.8c1.2-0.6,2.2-1.4,3.3-2.2c1.1-0.7,2-1.7,3-2.5c0.5-0.4,0.9-0.9,1.3-1.4c0.4-0.5,0.9-1,1.3-1.5
		c0.7-1.1,1.6-2.1,2.2-3.2c0.3-0.6,0.7-1.1,1-1.7l0.8-1.8c0.5-1.2,0.9-2.4,1.2-3.7l0.2-0.9l0.2-0.9l0.2-1l0.1-1
		c0.1-0.6,0.1-1.3,0.1-1.9c0-0.3,0-0.6-0.1-0.9c0-0.3,0-0.6-0.1-0.9l-0.1-0.5l0-0.1c0,0,0,0.1,0,0.1l0,0c0,0,0-0.1-0.1-0.1
		c-0.1-0.1-0.3-0.3-0.5-0.4c-0.4-0.3-1-0.4-1.7-0.6c-1.2-0.2-2.5-0.3-3.9-0.2c-1.3,0-2.7,0.1-4,0.2c-2.7,0.2-5.3,0.6-7.9,1
		L288.5,163.3"/>
	<path class="st6" d="M317.2,172.7c0,0,0,0.9-0.1,2.5c-0.1,1.6-0.3,3.8-0.7,6.5c-0.2,1.3-0.4,2.8-0.8,4.3c-0.3,1.5-0.8,3.1-1.3,4.7
		c-0.5,1.6-0.9,3.3-1.3,5c-0.4,1.7-0.6,3.5-0.8,5.3c-0.2,1.8-0.5,3.6-0.8,5.3c-0.4,1.7-0.7,3.4-1.1,5.1c-0.1,0.8-0.4,1.6-0.7,2.4
		c-0.2,0.8-0.5,1.6-0.8,2.3c-0.6,1.5-1.2,2.7-2,4c-0.7,1.2-1.4,2.2-2,3.1c-0.7,0.9-1.3,1.6-1.8,2.2c-0.6,0.6-1,1-1.3,1.3
		c-0.3,0.3-0.5,0.4-0.5,0.4l-0.1-0.1c0,0,0.1-0.2,0.4-0.5c0.2-0.3,0.6-0.9,1-1.5c0.2-0.3,0.4-0.7,0.6-1.1c0.2-0.4,0.5-0.9,0.7-1.3
		c0.5-1,1.1-2,1.5-3.2c0.5-1.1,1.1-2.6,1.6-3.9c0.4-1.5,0.9-2.9,1.4-4.5c0.4-1.6,0.9-3.3,1.4-5c0.4-1.7,1-3.4,1.5-5.1
		c0.5-1.7,1-3.4,1.3-5.2c0.4-1.7,0.6-3.4,0.8-5.1c0.2-1.7,0.3-3.3,0.6-4.8c0.3-1.5,0.6-2.9,0.8-4.3c0.6-2.6,1.2-4.8,1.6-6.3
		c0.4-1.5,0.8-2.4,0.8-2.4L317.2,172.7"/>
	<path class="st6" d="M345.2,188.2c0,0,0,0.3-0.1,0.9c-0.1,0.6-0.2,1.5-0.3,2.6c-0.3,2.3-0.8,5.5-1.5,9.3c-0.4,1.9-0.8,4-1.4,6.2
		c-0.6,2.2-1.3,4.4-2.1,6.8c-0.7,2.3-1.7,4.7-2.5,7.1c-0.9,2.4-1.4,5-1.9,7.5c-0.5,2.6-0.9,5.1-1.4,7.6c-0.5,2.5-0.9,5-1.4,7.4
		c-0.2,1.2-0.5,2.4-0.8,3.5c-0.1,0.6-0.4,1.2-0.6,1.8c-0.2,0.6-0.4,0.9-0.6,1.5c-0.7,2.1-1.4,4.2-2.4,6c-1,1.8-2.2,3.4-3.6,4.3
		c-1.4,1-3,1.4-4.2,1.3c-1.2,0-2.1-0.3-2.7-0.5c-0.6-0.2-0.9-0.4-0.9-0.4l0.1-0.2c0,0,0.3,0.1,0.9,0.2c0.6,0.1,1.5,0.2,2.5,0.1
		c0.5-0.1,1.1-0.2,1.7-0.5c0.6-0.3,1.2-0.6,1.7-1.1c1.1-1,2-2.4,2.8-4.1c0.8-1.7,1.3-3.7,2-5.8c0.1-0.3,0.2-0.5,0.3-0.9
		c0.1-0.2,0.1-0.3,0.2-0.4c0.1-0.2,0.1-0.3,0.1-0.4c0.1-0.5,0.3-0.9,0.4-1.5c0.3-1.1,0.5-2.3,0.8-3.5c0.5-2.4,1.1-4.8,1.7-7.3
		c0.3-1.2,0.6-2.5,1-3.8c0.4-1.2,0.7-2.5,1.1-3.8c0.8-2.5,1.5-5,2.4-7.4c0.8-2.5,1.6-4.8,2-7.2c0.6-2.4,0.9-4.7,1.4-6.9
		c0.5-2.2,1-4.2,1.4-6.1c0.9-3.8,1.8-6.9,2.4-9.1c0.6-2.2,1-3.4,1-3.4L345.2,188.2"/>
	<path class="st6" d="M327.9,255.4c-0.7,2.2-1.2,4.4-1.7,6.7c-0.4,2.2-0.8,4.5-1,6.7c-0.2,2.2-0.1,4.5,0.4,6.6
		c0.2,1.1,0.6,2.1,1.1,3c0.5,0.9,1.2,1.7,2,2.3c0.8,0.6,1.8,1.1,2.7,1.3l1.7,0.4l0.4,0.1l0.4,0l0.8,0.1l0.8,0.1c0.3,0,0.5,0,0.8,0
		c0.5-0.1,1.1,0,1.6-0.2c0.5-0.1,1.1-0.2,1.6-0.4l1.6-0.6l1.5-0.7c0.5-0.3,0.9-0.6,1.4-0.9c0.5-0.3,0.9-0.7,1.3-1
		c0.4-0.4,0.8-0.8,1.2-1.2c0.4-0.4,0.8-0.8,1.2-1.2c0.4-0.4,0.7-0.9,1.1-1.3c0.7-0.9,1.3-1.9,1.8-2.9l0,0c1.9-5.6,3.6-11.3,5.5-16.9
		l2.8-8.4l1.4-4.2l1.3-4.2l0.6-2.1c0.2-0.7,0.4-1.4,0.6-2.1l1.5-4.3c1-2.8,2-5.6,3.1-8.3c1.1-2.8,2.2-5.5,3.3-8.2
		c1.1-2.7,2.3-5.5,3.5-8.2l0.2,0.1c-0.8,2.8-1.7,5.7-2.6,8.5l-1.3,4.2l-1.4,4.2l-2.8,8.4L365,235l-1.2,4.3c-0.4,1.5-0.9,2.8-1.4,4.2
		l-1.5,4.2c-1,2.8-2,5.6-3.1,8.3c-2.1,5.5-4.3,11-6.4,16.5l0,0v0c-0.6,1-1.2,2-1.9,2.9c-0.7,0.9-1.5,1.8-2.3,2.7
		c-0.8,0.8-1.7,1.6-2.6,2.4c-0.5,0.3-0.9,0.7-1.4,1l-1.5,0.9l-1.6,0.7c-0.6,0.2-1.1,0.3-1.7,0.5c-0.6,0.2-1.2,0.2-1.8,0.3
		c-0.3,0-0.6,0.1-0.9,0.1l-0.9,0c-1.3,0-2.4-0.2-3.5-0.4c-0.4-0.1-0.6-0.2-0.9-0.3c-0.3-0.1-0.6-0.2-0.9-0.3
		c-0.3-0.1-0.6-0.3-0.9-0.4l-0.8-0.5c-1-0.8-1.9-1.8-2.5-2.9c-0.6-1.1-1-2.3-1.2-3.5c-0.3-1.2-0.3-2.4-0.3-3.6
		c0-1.2,0.1-2.4,0.2-3.5c0.3-2.3,0.8-4.6,1.5-6.9c0.3-1.1,0.7-2.2,1.1-3.3c0.4-1.1,0.8-2.2,1.3-3.2L327.9,255.4"/>
	<path class="st6" d="M394.1,227.1c0,0,0,1.4-0.1,3.8c-0.1,1.2-0.2,2.7-0.5,4.3c-0.2,1.7-0.6,3.5-1.3,5.6c-0.2,0.5-0.4,1-0.7,1.5
		c-0.3,0.6-0.6,1-0.9,1.5c-0.6,0.9-1.2,1.9-1.8,2.9c-1.2,2-2.6,4-4,6.2c-1.4,2.2-2.8,4.4-4,6.8c-0.6,1.2-1.2,2.4-1.8,3.6
		c-0.3,0.6-0.6,1.2-0.8,1.9c-0.1,0.2-0.1,0.3-0.1,0.4c0,0.1,0,0.1-0.1,0.2c0,0.1,0,0.2-0.1,0.3c-0.1,0.4-0.2,0.7-0.3,1
		c-0.9,2.6-1.9,5.2-3.2,7.6c-1.3,2.4-2.7,4.7-4.3,6.8c-0.8,1-1.7,2-2.8,2.9c-1,0.8-2.2,1.6-3.6,1.9c-0.3,0.1-0.7,0.1-1,0.2
		c-0.4,0-0.7,0-1.1,0c-0.3-0.1-0.7-0.1-1-0.2c-0.3-0.1-0.5-0.2-0.8-0.3c-0.5-0.1-1.1-0.4-1.6-0.7c-0.5-0.2-1-0.6-1.5-0.8
		c-1.8-1.2-3.2-2.7-4.2-4.2c-1-1.5-1.6-2.9-1.8-4.1c-0.3-1.2-0.3-2.2-0.1-2.9c0.1-0.7,0.3-1,0.3-1l0.2,0.1c0,0-0.1,0.3-0.1,0.9
		c0,0.6,0.1,1.5,0.5,2.6c0.4,1.1,1.1,2.3,2.1,3.5c1,1.2,2.4,2.4,4,3.3c0.4,0.2,0.9,0.4,1.3,0.6c0.2,0.1,0.4,0.2,0.7,0.2
		c0.2,0.1,0.5,0.2,0.7,0.2l0.8,0.2c0.2,0.1,0.4,0.1,0.6,0.1c0.2,0,0.4,0,0.7,0c0.2-0.1,0.4-0.1,0.7-0.2c1.8-0.6,3.6-2.2,5.2-4.1
		c1.6-1.9,3.1-4,4.4-6.3c1.3-2.3,2.7-4.7,3.8-7.1c0.1-0.3,0.3-0.6,0.4-0.9c0-0.1,0.1-0.1,0.1-0.2l0.1-0.3c0.1-0.2,0.1-0.4,0.2-0.5
		c0.3-0.6,0.6-1.2,1-1.9c0.7-1.2,1.3-2.4,1.9-3.6c1.3-2.4,2.5-4.7,3.6-7c1.2-2.3,2.2-4.5,3.4-6.6c0.6-1,1.2-2,1.8-3
		c0.7-1,1.1-1.7,1.4-2.6c0.7-1.8,1.2-3.6,1.6-5.2c0.4-1.6,0.7-3,1-4.2c0.5-2.3,0.8-3.7,0.8-3.7L394.1,227.1"/>
</g>
<g>
	<defs>
		<rect id="SVGID_7_" x="241.7" y="150.3" width="163.7" height="361"/>
	</defs>
	<clipPath id="SVGID_8_">
		<use xlink:href="#SVGID_7_"  style="overflow:visible;"/>
	</clipPath>
	<path class="st7" d="M377.6,503.3c-0.9-23.9,0.4-48,0.8-71.9c0.5-30,1-60.1,1.5-90.1c0-2.5,0.1-5,0.1-7.5c0-1.3,0.1-0.4-0.2-0.1
		c1.5-1.3,3-2.7,4.4-4.2c15.6-16.6,17.7-39.8,19.8-61.5c1-10.3,1.4-20.6,1.4-30.9c0-4.6,0.7-10.5-1.4-14.9
		c-2.8-6-6.8-12.8-12.5-16.4c-4.7-2.9-14.2-7.3-18.3-1.1l2.4,0.3c-1-6.6-0.8-13.4-6.6-17.4c-4.4-3.1-10.4-5.6-15.9-4.9
		c-1.8,0.2-3.5,1.1-5,2.1c-0.6,0.4-1.2,0.9-1.8,1.4c-2,1.6,0.2,1.6,0.1,0.7c-0.2-4.6-0.6-9.2-1.3-13.7c-0.5-3.8-3.3-5.6-6.8-6.9
		c-8.9-3.3-17.4-3.6-22.3,5.6c0.8,0.2,1.6,0.4,2.4,0.7c-0.3-5.4,0.8-14.8-4.2-18.2c-5.8-4-16.6-5.8-21.7-0.2
		c-2.2,2.4-3.8,5.5-5.1,8.4c0.4-0.9,0.5-0.4-1-0.1c-1.9,0.4-3.7,0.8-5.5,1.2c-8.6,1.9-17.5,3.2-25.9,5.7c-4.8,1.4-6.4,9.9-7.5,13.8
		c-2,7.8-3.2,15.8-4.1,23.7c-0.5,3.9-0.9,7.9-1.1,11.9c-0.4,13.6,3.3,25.9,9.1,38.1c9.1,19.1,21,37.1,34.6,53.3
		c0.4,0.5,0.9,1.1,1.4,1.6c0.6,0.7-0.2-0.8,0.1,0.3c1,3.9,1.8,7.8,2.6,11.8c1.7,9.2,2.7,18.5,1.8,27.8c-2.9,30.1-6.9,60.1-10.5,90.1
		c-2.2,18.5-4.5,37-6.7,55.6c0,0.4,0.3,1,0.6,1.1c31.1,13.2,69.4,16.6,101.5,6.1c1.6-0.5,0.9-3-0.7-2.5c-26.5,8.6-55,7-81.7,0
		c-6-1.6-11.9-3.4-17.6-5.7c-0.8-0.3,0.3,1.9,0.5,0.2c0.2-1.3,0.3-2.6,0.5-3.9c3.7-30.3,7.4-60.5,10.9-90.8c1.7-14.5,3.4-29,5-43.6
		c1.7-15.4,0.3-30.2-3.4-45.3c-0.8-3.3-3.2-5.4-5.4-8c-6.6-8.1-12.6-16.7-18.1-25.6c-12.4-19.7-23.8-41.1-21.6-65.1
		c0.9-9.9,2.2-19.7,4.6-29.3c0.9-3.9,2.1-10,5.5-12.7c1.4-1.1,4.3-1.1,6-1.5c3.4-0.7,6.8-1.5,10.2-2.2c5.4-1.2,10.8-2.4,16.2-3.5
		c3-0.7,3.5-4,5-6.4c2.1-3.4,4.2-5.3,8.3-5.1c4,0.3,8.4,1.3,12,3.2c3.5,1.9,2.7,12.2,2.9,16c0.1,1.2,1.8,1.9,2.4,0.7
		c1.6-3,4.1-5.6,7.5-6.7c3.6-1.2,15.2,1.6,16.7,5.8c1.2,3.4,0.9,8.1,1.2,11.7c0.1,1.3-0.4,4.8,1.1,5.5c1.6,0.7,3.6-1.7,4.7-2.5
		c5.4-3.9,12.1-0.8,17.1,2.1c3.9,2.2,4.3,4.1,5.1,8.2c0.5,2.8,1,5.5,1.4,8.3c0.2,1.2,1.8,1.1,2.4,0.3c3.3-4.9,12.3,0.6,15.8,2.7
		c3.6,2.3,6.1,7.1,8.3,10.7c3.9,6.2,3.2,12.7,3.2,19.8c0,12.6-0.8,25.2-2.4,37.7c-1.8,14.5-3.5,29.8-11.5,42.3
		c-2.3,3.7-5.2,7-8.2,10.1c-0.8,0.8-3.2,2.2-3.2,3.5c0,1.7-0.1,3.5-0.1,5.2c-0.2,11.5-0.4,23.1-0.6,34.6
		c-0.5,26.8-0.9,53.5-1.3,80.3c-0.2,16.7-1.1,33.6-0.5,50.3C375,505,377.6,505,377.6,503.3"/>
</g>
<g>
	<defs>
		<rect id="SVGID_9_" x="27.4" y="25.1" width="378" height="498.7"/>
	</defs>
	<clipPath id="SVGID_10_">
		<use xlink:href="#SVGID_9_"  style="overflow:visible;"/>
	</clipPath>
	<path class="st8" d="M273.5,165.5c0,0,2,4,11.7,3.6c9.7-0.4,22-2.4,22-6.9C306.3,155,273.5,165.5,273.5,165.5"/>
	<path class="st8" d="M318.6,233.6c-7.8-1.2-8.1,8.8-8.1,8.8s6,15.9,6.2,19.3c6.6,3.6,7.8-6.6,7.8-6.6S331.5,235.5,318.6,233.6"/>
	<path class="st8" d="M331.1,288.7c0,0-6.5-1-5.5-10.6s8.3-19.1,15.2-14.6c6.9,4.5,3.6,10.5,3,12
		C343.1,277.1,337.9,290.4,331.1,288.7"/>
	<path class="st8" d="M356.4,288.9c0,0-4.6-2.3-3.3-8.9c1.3-6.6,4.2-13.3,10.6-11.4c6.4,1.9,3.6,9.5,3.6,9.5S364,290.1,356.4,288.9"
		/>
</g>
</svg>
